<svg width="98" height="49" viewBox="0 0 98 49" fill="none" xmlns="http://www.w3.org/2000/svg">
<path d="M28.0658 22.6795C28.0658 22.2008 28.0608 21.7919 28.0509 21.4528C28.0509 19.7872 28.0359 18.6353 28.006 17.9969C27.996 17.5082 27.9162 17.1791 27.7666 17.0096C27.617 16.83 27.3527 16.7403 26.9737 16.7403H24.8643C24.7047 16.7403 24.3507 16.6555 23.8021 16.486C23.872 15.5684 24.0066 14.7007 24.2061 13.8829L25.2234 13.7033L25.4927 14.0026C25.5824 14.1123 25.6622 14.1821 25.732 14.212C25.8118 14.2319 25.9514 14.2419 26.1509 14.2419H27.4375C28.1257 14.2419 28.6543 14.3367 29.0233 14.5262C29.4023 14.7057 29.6666 15.0199 29.8162 15.4687C29.9758 15.9175 30.0605 16.5558 30.0705 17.3836C30.0705 18.0917 30.0506 18.9345 30.0107 19.9119C29.9708 20.8893 29.9209 21.7121 29.8611 22.3803L28.7091 22.6795H28.0658ZM37.089 14.1821C37.6076 14.3815 37.9667 14.6309 38.1661 14.9301C38.3656 15.2193 38.4653 15.6282 38.4653 16.1568C38.4653 16.6455 38.3506 17.4185 38.1213 18.4757C37.8919 19.5329 37.6625 20.3357 37.4331 20.8843C36.9344 21.3331 36.1415 21.8118 35.0544 22.3205C33.9673 22.8192 32.8253 23.2331 31.6285 23.5622H31.045V21.1835C31.9726 20.9142 32.7256 20.6699 33.304 20.4504L32.3466 17.219C32.2768 16.9796 32.202 16.8151 32.1222 16.7253C32.0424 16.6256 31.8429 16.481 31.5238 16.2915L31.075 16.0072C31.3143 15.2592 31.5886 14.576 31.8978 13.9577L32.3167 13.8529C32.6059 13.9726 32.8303 14.0774 32.9899 14.1671C33.4387 14.3865 33.7578 14.6458 33.9473 14.945C34.1468 15.2443 34.3064 15.708 34.4261 16.3364C34.5557 16.9946 34.7602 18.1515 35.0394 19.8071C35.5979 19.5678 35.972 19.2636 36.1615 18.8946C36.3509 18.5255 36.4557 17.977 36.4756 17.2489C36.4756 16.9996 36.4507 16.835 36.4008 16.7552C36.3609 16.6655 36.2512 16.5757 36.0717 16.486L35.204 16.0521C35.5032 15.1744 35.7725 14.4563 36.0118 13.8978H36.341C36.6402 13.9976 36.8895 14.0923 37.089 14.1821ZM40.164 19.8071L40.6876 17.7426C40.7575 17.5232 40.7924 17.3387 40.7924 17.1891C40.7924 17.0993 40.7575 17.0195 40.6876 16.9497C40.6278 16.8699 40.4981 16.7652 40.2987 16.6356L39.3562 16.0072C39.5955 15.3191 39.9197 14.6109 40.3286 13.8829L40.6577 13.7781C40.7774 13.838 40.8672 13.8879 40.927 13.9277C41.2661 14.0973 41.5504 14.2519 41.7797 14.3915C42.2784 14.6907 42.6275 14.98 42.827 15.2592C43.0264 15.5285 43.1262 15.8576 43.1262 16.2466C43.1262 16.6356 43.0464 17.0545 42.8868 17.5033C42.6873 18.1615 42.438 18.8597 42.1388 19.5977L40.5829 19.9717L40.164 19.8071ZM9.86358 32.8071L10.3872 30.7426C10.457 30.5232 10.4919 30.3387 10.4919 30.1891C10.4919 30.0993 10.457 30.0195 10.3872 29.9497C10.3274 29.8699 10.1977 29.7652 9.99823 29.6356L9.05573 29.0072C9.29509 28.3191 9.61923 27.6109 10.0281 26.8829L10.3573 26.7781C10.477 26.838 10.5667 26.8879 10.6266 26.9277C10.9657 27.0973 11.2499 27.2519 11.4793 27.3915C11.978 27.6907 12.327 27.98 12.5265 28.2592C12.726 28.5285 12.8257 28.8576 12.8257 29.2466C12.8257 29.6356 12.7459 30.0545 12.5864 30.5033C12.3869 31.1615 12.1375 31.8597 11.8383 32.5977L10.2825 32.9717L9.86358 32.8071ZM13.6189 33.0016H16.0275C15.9876 32.3135 15.9527 31.7749 15.9227 31.3859C15.8928 30.987 15.8579 30.7077 15.818 30.5481C15.7881 30.3786 15.7332 30.2489 15.6535 30.1592C15.5737 30.0694 15.429 29.9697 15.2196 29.86L13.9031 29.1718C14.0328 28.713 14.312 27.955 14.7409 26.8978L15.1298 26.823C15.8779 27.1422 16.4164 27.4015 16.7456 27.601C17.0547 27.7805 17.2841 27.96 17.4337 28.1395C17.5833 28.3191 17.6881 28.5534 17.7479 28.8427C17.8177 29.1219 17.8626 29.5259 17.8825 30.0545C17.8925 30.3038 17.8975 30.7626 17.8975 31.4308C17.8975 33.1562 17.8676 34.5126 17.8077 35.5H13.4842L13.6189 33.0016ZM20.6412 31.2064C20.6412 30.8075 20.6312 30.5432 20.6113 30.4135C20.5913 30.2739 20.5464 30.1691 20.4766 30.0993C20.4068 30.0295 20.2572 29.9348 20.0278 29.8151L18.8609 29.2616C19.0305 28.3141 19.225 27.5561 19.4444 26.9876L19.8782 26.8081C20.706 27.1272 21.2945 27.3865 21.6435 27.586C22.0624 27.8054 22.3517 28.0897 22.5112 28.4387C22.6708 28.7778 22.7506 29.2665 22.7506 29.9048C22.7506 30.6628 22.6858 32.488 22.5561 35.3803L21.2246 35.6945H20.6412V31.2064ZM28.1827 35.6795C28.1827 35.2008 28.1777 34.7919 28.1677 34.4528C28.1677 32.7872 28.1528 31.6353 28.1229 30.9969C28.1129 30.5082 28.0331 30.1791 27.8835 30.0096C27.7339 29.83 27.4696 29.7403 27.0906 29.7403H24.9812C24.8216 29.7403 24.4676 29.6555 23.919 29.486C23.9888 28.5684 24.1235 27.7007 24.3229 26.8829L25.3402 26.7033L25.6095 27.0026C25.6993 27.1123 25.7791 27.1821 25.8489 27.212C25.9287 27.2319 26.0683 27.2419 26.2678 27.2419H27.5544C28.2425 27.2419 28.7711 27.3367 29.1402 27.5262C29.5192 27.7057 29.7835 28.0199 29.9331 28.4687C30.0926 28.9175 30.1774 29.5558 30.1874 30.3836C30.1874 31.0917 30.1674 31.9345 30.1275 32.9119C30.0876 33.8893 30.0378 34.7121 29.9779 35.3803L28.826 35.6795H28.1827ZM31.895 32.8071L32.4186 30.7426C32.4884 30.5232 32.5233 30.3387 32.5233 30.1891C32.5233 30.0993 32.4884 30.0195 32.4186 29.9497C32.3587 29.8699 32.2291 29.7652 32.0296 29.6356L31.0871 29.0072C31.3265 28.3191 31.6506 27.6109 32.0595 26.8829L32.3886 26.7781C32.5083 26.838 32.5981 26.8879 32.6579 26.9277C32.997 27.0973 33.2813 27.2519 33.5107 27.3915C34.0093 27.6907 34.3584 27.98 34.5579 28.2592C34.7574 28.5285 34.8571 28.8576 34.8571 29.2466C34.8571 29.6356 34.7773 30.0545 34.6177 30.5033C34.4183 31.1615 34.1689 31.8597 33.8697 32.5977L32.3138 32.9717L31.895 32.8071ZM41.7787 27.1821C42.2973 27.3815 42.6564 27.6309 42.8558 27.9301C43.0553 28.2193 43.155 28.6282 43.155 29.1568C43.155 29.6455 43.0403 30.4185 42.811 31.4757C42.5816 32.5329 42.3522 33.3357 42.1228 33.8843C41.6241 34.3331 40.8312 34.8118 39.7441 35.3205C38.657 35.8192 37.515 36.2331 36.3182 36.5622H35.7347V34.1835C36.6623 33.9142 37.4153 33.6699 37.9937 33.4504L37.0363 30.219C36.9665 29.9796 36.8917 29.8151 36.8119 29.7253C36.7321 29.6256 36.5326 29.481 36.2135 29.2915L35.7647 29.0072C36.004 28.2592 36.2783 27.576 36.5875 26.9577L37.0064 26.8529C37.2956 26.9726 37.52 27.0774 37.6796 27.1671C38.1284 27.3865 38.4475 27.6458 38.637 27.945C38.8365 28.2443 38.9961 28.708 39.1158 29.3364C39.2454 29.9946 39.4499 31.1515 39.7291 32.8071C40.2876 32.5678 40.6617 32.2636 40.8512 31.8946C41.0407 31.5255 41.1454 30.977 41.1653 30.2489C41.1653 29.9996 41.1404 29.835 41.0905 29.7552C41.0506 29.6655 40.9409 29.5757 40.7614 29.486L39.8937 29.0521C40.1929 28.1744 40.4622 27.4563 40.7016 26.8978H41.0307C41.3299 26.9976 41.5792 27.0923 41.7787 27.1821Z" fill="white"/>
<path d="M76.2313 29.7649C76.4069 29.9413 76.5829 29.9856 76.8027 29.9856C77.0224 29.9856 77.1981 29.8973 77.374 29.7649C77.6818 29.4559 77.6818 28.9265 77.374 28.6179L71.2219 22.4409L65.0698 28.6179C64.762 28.9269 64.762 29.4562 65.0698 29.7649C65.3775 30.0739 65.9048 30.0739 66.2122 29.7649L70.3869 25.5734V40.1337C70.3869 40.5751 70.7385 40.9721 71.222 40.9721C71.7054 40.9721 72.057 40.6191 72.057 40.1337L72.0567 25.5734L76.2313 29.7649Z" fill="white"/>
<path d="M84.6602 18.7023C84.7203 18.3406 84.7203 17.9788 84.7203 17.7373C84.7203 12.37 80.3848 8.02783 75.0256 8.02783C71.7136 8.02783 68.6428 9.71644 66.8962 12.4302C66.1133 11.9477 64.9091 11.4652 63.283 11.4652C59.6099 11.5253 56.6591 14.4805 56.6591 18.1593C56.6591 18.5211 56.6591 18.8227 56.7192 19.1844C53.7084 20.3905 51.6611 23.2851 51.6611 26.6627C51.6611 31.0048 55.0936 34.3218 59.6698 34.3218H65.7515C66.3539 34.3218 66.8957 33.8393 66.8957 33.1759C66.8957 32.5726 66.4139 32.0299 65.7515 32.0299L59.6703 32.0303C56.3583 32.0303 53.8893 29.7386 53.8893 26.6029C53.8893 23.8892 55.6959 21.5974 58.3454 20.9945L59.5496 20.6929L59.1279 19.5469C58.9473 19.0644 58.8872 18.6425 58.8872 18.16C58.8872 15.7479 60.8743 13.7577 63.3433 13.7577C65.3905 13.7577 66.294 14.843 66.3541 14.9036L67.4983 16.4715L68.2812 14.7228C69.4854 12.0692 72.135 10.3205 75.0857 10.3205C79.1802 10.3205 82.5526 13.6976 82.5526 17.7987C82.5526 18.1605 82.432 19.0047 82.372 19.4271L82.1914 20.4523L83.215 20.6933C85.804 21.2966 87.7312 23.6485 87.7312 26.3017C87.7312 29.498 85.1421 32.0914 81.9502 32.0914H76.9523C76.35 32.0914 75.8081 32.5739 75.8081 33.2374C75.8081 33.8406 76.2899 34.3833 76.9523 34.3833H81.9502C86.3459 34.3833 89.9589 30.7646 89.9589 26.3624C89.9585 22.8637 87.7916 19.8483 84.6602 18.7023Z" fill="white"/>
</svg>
